<mxfile host="app.diagrams.net" modified="2020-08-29T06:21:18.679Z" agent="5.0 (Windows NT 10.0; Win64; x64) AppleWebKit/537.36 (KHTML, like Gecko) Chrome/84.0.4147.135 Safari/537.36" etag="iM-iNGSMiqY_utIHMk04" version="13.6.4" type="github">
  <diagram id="C5RBs43oDa-KdzZeNtuy" name="Page-1">
    <mxGraphModel dx="2500" dy="2065" grid="1" gridSize="10" guides="1" tooltips="1" connect="1" arrows="1" fold="1" page="1" pageScale="1" pageWidth="827" pageHeight="1169" math="0" shadow="0">
      <root>
        <mxCell id="WIyWlLk6GJQsqaUBKTNV-0" />
        <mxCell id="WIyWlLk6GJQsqaUBKTNV-1" parent="WIyWlLk6GJQsqaUBKTNV-0" />
        <mxCell id="NuSIliQYUazbYQGjYqIf-35" value="&lt;p style=&quot;margin: 0px ; margin-top: 6px ; text-align: center&quot;&gt;&lt;b&gt;TableOrCardDisplay&lt;/b&gt;&lt;/p&gt;&lt;hr&gt;&lt;p style=&quot;margin: 0px ; margin-left: 8px&quot;&gt;&lt;br&gt;&lt;/p&gt;" style="align=left;overflow=fill;html=1;dropTarget=0;" vertex="1" parent="WIyWlLk6GJQsqaUBKTNV-1">
          <mxGeometry x="-80" y="130" width="980" height="290" as="geometry" />
        </mxCell>
        <mxCell id="NuSIliQYUazbYQGjYqIf-36" value="" style="shape=component;jettyWidth=8;jettyHeight=4;" vertex="1" parent="NuSIliQYUazbYQGjYqIf-35">
          <mxGeometry x="1" width="20" height="20" relative="1" as="geometry">
            <mxPoint x="-24" y="4" as="offset" />
          </mxGeometry>
        </mxCell>
        <mxCell id="NuSIliQYUazbYQGjYqIf-7" value="Table" style="edgeStyle=orthogonalEdgeStyle;rounded=0;orthogonalLoop=1;jettySize=auto;html=1;entryX=0.5;entryY=0;entryDx=0;entryDy=0;" edge="1" parent="WIyWlLk6GJQsqaUBKTNV-1" source="WIyWlLk6GJQsqaUBKTNV-6" target="NuSIliQYUazbYQGjYqIf-13">
          <mxGeometry relative="1" as="geometry">
            <mxPoint x="210" y="240" as="targetPoint" />
          </mxGeometry>
        </mxCell>
        <mxCell id="NuSIliQYUazbYQGjYqIf-9" style="edgeStyle=orthogonalEdgeStyle;rounded=0;orthogonalLoop=1;jettySize=auto;html=1;entryX=0.5;entryY=0;entryDx=0;entryDy=0;" edge="1" parent="WIyWlLk6GJQsqaUBKTNV-1" source="WIyWlLk6GJQsqaUBKTNV-6" target="NuSIliQYUazbYQGjYqIf-14">
          <mxGeometry relative="1" as="geometry">
            <mxPoint x="550" y="240" as="targetPoint" />
          </mxGeometry>
        </mxCell>
        <mxCell id="NuSIliQYUazbYQGjYqIf-10" value="Card List" style="edgeLabel;html=1;align=center;verticalAlign=middle;resizable=0;points=[];" vertex="1" connectable="0" parent="NuSIliQYUazbYQGjYqIf-9">
          <mxGeometry x="-0.3286" y="4" relative="1" as="geometry">
            <mxPoint as="offset" />
          </mxGeometry>
        </mxCell>
        <mxCell id="WIyWlLk6GJQsqaUBKTNV-6" value="&lt;span&gt;Table Or Card List?&lt;/span&gt;" style="rhombus;whiteSpace=wrap;html=1;shadow=0;fontFamily=Helvetica;fontSize=12;align=center;strokeWidth=1;spacing=6;spacingTop=-4;" parent="WIyWlLk6GJQsqaUBKTNV-1" vertex="1">
          <mxGeometry x="320" y="200" width="140" height="80" as="geometry" />
        </mxCell>
        <mxCell id="NuSIliQYUazbYQGjYqIf-1" style="edgeStyle=orthogonalEdgeStyle;rounded=0;orthogonalLoop=1;jettySize=auto;html=1;exitX=0.5;exitY=1;exitDx=0;exitDy=0;entryX=0.5;entryY=0;entryDx=0;entryDy=0;" edge="1" parent="WIyWlLk6GJQsqaUBKTNV-1" source="NuSIliQYUazbYQGjYqIf-39" target="WIyWlLk6GJQsqaUBKTNV-6">
          <mxGeometry relative="1" as="geometry">
            <mxPoint x="390" y="80" as="sourcePoint" />
            <mxPoint x="390" y="200" as="targetPoint" />
          </mxGeometry>
        </mxCell>
        <mxCell id="NuSIliQYUazbYQGjYqIf-4" style="edgeStyle=orthogonalEdgeStyle;rounded=0;orthogonalLoop=1;jettySize=auto;html=1;entryX=0.5;entryY=0;entryDx=0;entryDy=0;" edge="1" parent="WIyWlLk6GJQsqaUBKTNV-1" source="NuSIliQYUazbYQGjYqIf-39" target="NuSIliQYUazbYQGjYqIf-41">
          <mxGeometry relative="1" as="geometry">
            <mxPoint x="330" y="60" as="sourcePoint" />
            <mxPoint x="-189" y="218" as="targetPoint" />
          </mxGeometry>
        </mxCell>
        <mxCell id="NuSIliQYUazbYQGjYqIf-5" style="edgeStyle=orthogonalEdgeStyle;rounded=0;orthogonalLoop=1;jettySize=auto;html=1;entryX=0.642;entryY=0;entryDx=0;entryDy=0;entryPerimeter=0;exitX=1;exitY=0.5;exitDx=0;exitDy=0;" edge="1" parent="WIyWlLk6GJQsqaUBKTNV-1" source="NuSIliQYUazbYQGjYqIf-39">
          <mxGeometry relative="1" as="geometry">
            <mxPoint x="450" y="60" as="sourcePoint" />
            <mxPoint x="1037.04" y="220" as="targetPoint" />
          </mxGeometry>
        </mxCell>
        <mxCell id="NuSIliQYUazbYQGjYqIf-19" style="edgeStyle=orthogonalEdgeStyle;rounded=0;orthogonalLoop=1;jettySize=auto;html=1;entryX=0.5;entryY=0;entryDx=0;entryDy=0;" edge="1" parent="WIyWlLk6GJQsqaUBKTNV-1" source="NuSIliQYUazbYQGjYqIf-13" target="NuSIliQYUazbYQGjYqIf-46">
          <mxGeometry relative="1" as="geometry">
            <mxPoint x="-30" y="490" as="targetPoint" />
          </mxGeometry>
        </mxCell>
        <mxCell id="NuSIliQYUazbYQGjYqIf-25" value="Active" style="edgeLabel;html=1;align=center;verticalAlign=middle;resizable=0;points=[];" vertex="1" connectable="0" parent="NuSIliQYUazbYQGjYqIf-19">
          <mxGeometry x="-0.2083" y="2" relative="1" as="geometry">
            <mxPoint as="offset" />
          </mxGeometry>
        </mxCell>
        <mxCell id="NuSIliQYUazbYQGjYqIf-20" style="edgeStyle=orthogonalEdgeStyle;rounded=0;orthogonalLoop=1;jettySize=auto;html=1;entryX=0.5;entryY=0;entryDx=0;entryDy=0;" edge="1" parent="WIyWlLk6GJQsqaUBKTNV-1" source="NuSIliQYUazbYQGjYqIf-13" target="NuSIliQYUazbYQGjYqIf-48">
          <mxGeometry relative="1" as="geometry">
            <mxPoint x="330" y="480" as="targetPoint" />
          </mxGeometry>
        </mxCell>
        <mxCell id="NuSIliQYUazbYQGjYqIf-26" value="Archive" style="edgeLabel;html=1;align=center;verticalAlign=middle;resizable=0;points=[];" vertex="1" connectable="0" parent="NuSIliQYUazbYQGjYqIf-20">
          <mxGeometry x="-0.3417" y="-2" relative="1" as="geometry">
            <mxPoint as="offset" />
          </mxGeometry>
        </mxCell>
        <mxCell id="NuSIliQYUazbYQGjYqIf-13" value="&lt;span&gt;Active Or Archive?&lt;/span&gt;" style="rhombus;whiteSpace=wrap;html=1;shadow=0;fontFamily=Helvetica;fontSize=12;align=center;strokeWidth=1;spacing=6;spacingTop=-4;" vertex="1" parent="WIyWlLk6GJQsqaUBKTNV-1">
          <mxGeometry x="-40" y="310" width="140" height="80" as="geometry" />
        </mxCell>
        <mxCell id="NuSIliQYUazbYQGjYqIf-22" style="edgeStyle=orthogonalEdgeStyle;rounded=0;orthogonalLoop=1;jettySize=auto;html=1;entryX=0.5;entryY=0;entryDx=0;entryDy=0;" edge="1" parent="WIyWlLk6GJQsqaUBKTNV-1" source="NuSIliQYUazbYQGjYqIf-14" target="NuSIliQYUazbYQGjYqIf-52">
          <mxGeometry relative="1" as="geometry">
            <mxPoint x="860" y="480" as="targetPoint" />
          </mxGeometry>
        </mxCell>
        <mxCell id="NuSIliQYUazbYQGjYqIf-28" value="Archive" style="edgeLabel;html=1;align=center;verticalAlign=middle;resizable=0;points=[];" vertex="1" connectable="0" parent="NuSIliQYUazbYQGjYqIf-22">
          <mxGeometry x="-0.1214" y="4" relative="1" as="geometry">
            <mxPoint as="offset" />
          </mxGeometry>
        </mxCell>
        <mxCell id="NuSIliQYUazbYQGjYqIf-54" style="edgeStyle=orthogonalEdgeStyle;rounded=0;orthogonalLoop=1;jettySize=auto;html=1;entryX=0.5;entryY=0;entryDx=0;entryDy=0;" edge="1" parent="WIyWlLk6GJQsqaUBKTNV-1" source="NuSIliQYUazbYQGjYqIf-14" target="NuSIliQYUazbYQGjYqIf-50">
          <mxGeometry relative="1" as="geometry" />
        </mxCell>
        <mxCell id="NuSIliQYUazbYQGjYqIf-55" value="Active" style="edgeLabel;html=1;align=center;verticalAlign=middle;resizable=0;points=[];" vertex="1" connectable="0" parent="NuSIliQYUazbYQGjYqIf-54">
          <mxGeometry x="0.0216" y="-1" relative="1" as="geometry">
            <mxPoint as="offset" />
          </mxGeometry>
        </mxCell>
        <mxCell id="NuSIliQYUazbYQGjYqIf-14" value="&lt;span&gt;Active Or Archive?&lt;/span&gt;" style="rhombus;whiteSpace=wrap;html=1;shadow=0;fontFamily=Helvetica;fontSize=12;align=center;strokeWidth=1;spacing=6;spacingTop=-4;" vertex="1" parent="WIyWlLk6GJQsqaUBKTNV-1">
          <mxGeometry x="730" y="310" width="140" height="80" as="geometry" />
        </mxCell>
        <mxCell id="NuSIliQYUazbYQGjYqIf-39" value="&lt;p style=&quot;margin: 0px ; margin-top: 6px ; text-align: center&quot;&gt;&lt;b&gt;LandingPage&lt;/b&gt;&lt;/p&gt;&lt;hr&gt;&lt;p style=&quot;margin: 0px ; margin-left: 8px&quot;&gt;&lt;br&gt;&lt;/p&gt;" style="align=left;overflow=fill;html=1;dropTarget=0;" vertex="1" parent="WIyWlLk6GJQsqaUBKTNV-1">
          <mxGeometry x="300" y="-30" width="180" height="90" as="geometry" />
        </mxCell>
        <mxCell id="NuSIliQYUazbYQGjYqIf-40" value="" style="shape=component;jettyWidth=8;jettyHeight=4;" vertex="1" parent="NuSIliQYUazbYQGjYqIf-39">
          <mxGeometry x="1" width="20" height="20" relative="1" as="geometry">
            <mxPoint x="-24" y="4" as="offset" />
          </mxGeometry>
        </mxCell>
        <mxCell id="NuSIliQYUazbYQGjYqIf-41" value="&lt;p style=&quot;margin: 0px ; margin-top: 6px ; text-align: center&quot;&gt;&lt;b&gt;RecentItemDisplay&lt;/b&gt;&lt;/p&gt;&lt;hr&gt;&lt;p style=&quot;margin: 0px ; margin-left: 8px&quot;&gt;&lt;br&gt;&lt;/p&gt;" style="align=left;overflow=fill;html=1;dropTarget=0;" vertex="1" parent="WIyWlLk6GJQsqaUBKTNV-1">
          <mxGeometry x="-330" y="130" width="180" height="90" as="geometry" />
        </mxCell>
        <mxCell id="NuSIliQYUazbYQGjYqIf-42" value="" style="shape=component;jettyWidth=8;jettyHeight=4;" vertex="1" parent="NuSIliQYUazbYQGjYqIf-41">
          <mxGeometry x="1" width="20" height="20" relative="1" as="geometry">
            <mxPoint x="-24" y="4" as="offset" />
          </mxGeometry>
        </mxCell>
        <mxCell id="NuSIliQYUazbYQGjYqIf-43" value="&lt;p style=&quot;margin: 0px ; margin-top: 6px ; text-align: center&quot;&gt;&lt;b&gt;Empty&lt;/b&gt;&lt;/p&gt;&lt;hr&gt;&lt;p style=&quot;margin: 0px ; margin-left: 8px&quot;&gt;&lt;br&gt;&lt;/p&gt;" style="align=left;overflow=fill;html=1;dropTarget=0;" vertex="1" parent="WIyWlLk6GJQsqaUBKTNV-1">
          <mxGeometry x="970" y="130" width="180" height="90" as="geometry" />
        </mxCell>
        <mxCell id="NuSIliQYUazbYQGjYqIf-44" value="" style="shape=component;jettyWidth=8;jettyHeight=4;" vertex="1" parent="NuSIliQYUazbYQGjYqIf-43">
          <mxGeometry x="1" width="20" height="20" relative="1" as="geometry">
            <mxPoint x="-24" y="4" as="offset" />
          </mxGeometry>
        </mxCell>
        <mxCell id="NuSIliQYUazbYQGjYqIf-46" value="&lt;p style=&quot;margin: 0px ; margin-top: 6px ; text-align: center&quot;&gt;&lt;b&gt;TableDisplay&lt;/b&gt;&lt;/p&gt;&lt;hr&gt;&lt;p style=&quot;margin: 0px ; margin-left: 8px&quot;&gt;&lt;br&gt;&lt;/p&gt;" style="align=left;overflow=fill;html=1;dropTarget=0;" vertex="1" parent="WIyWlLk6GJQsqaUBKTNV-1">
          <mxGeometry x="-380" y="450" width="270" height="170" as="geometry" />
        </mxCell>
        <mxCell id="NuSIliQYUazbYQGjYqIf-47" value="" style="shape=component;jettyWidth=8;jettyHeight=4;" vertex="1" parent="NuSIliQYUazbYQGjYqIf-46">
          <mxGeometry x="1" width="20" height="20" relative="1" as="geometry">
            <mxPoint x="-24" y="4" as="offset" />
          </mxGeometry>
        </mxCell>
        <mxCell id="NuSIliQYUazbYQGjYqIf-48" value="&lt;p style=&quot;margin: 0px ; margin-top: 6px ; text-align: center&quot;&gt;&lt;b&gt;ArchiveTableDisplay&lt;/b&gt;&lt;/p&gt;&lt;hr&gt;&lt;p style=&quot;margin: 0px ; margin-left: 8px&quot;&gt;&lt;br&gt;&lt;/p&gt;" style="align=left;overflow=fill;html=1;dropTarget=0;" vertex="1" parent="WIyWlLk6GJQsqaUBKTNV-1">
          <mxGeometry x="130" y="455" width="260" height="160" as="geometry" />
        </mxCell>
        <mxCell id="NuSIliQYUazbYQGjYqIf-49" value="" style="shape=component;jettyWidth=8;jettyHeight=4;" vertex="1" parent="NuSIliQYUazbYQGjYqIf-48">
          <mxGeometry x="1" width="20" height="20" relative="1" as="geometry">
            <mxPoint x="-24" y="4" as="offset" />
          </mxGeometry>
        </mxCell>
        <mxCell id="NuSIliQYUazbYQGjYqIf-50" value="&lt;p style=&quot;margin: 0px ; margin-top: 6px ; text-align: center&quot;&gt;&lt;b&gt;ListCardDisplay&lt;/b&gt;&lt;/p&gt;&lt;hr&gt;&lt;p style=&quot;margin: 0px ; margin-left: 8px&quot;&gt;&lt;br&gt;&lt;/p&gt;" style="align=left;overflow=fill;html=1;dropTarget=0;" vertex="1" parent="WIyWlLk6GJQsqaUBKTNV-1">
          <mxGeometry x="460" y="450" width="240" height="160" as="geometry" />
        </mxCell>
        <mxCell id="NuSIliQYUazbYQGjYqIf-51" value="" style="shape=component;jettyWidth=8;jettyHeight=4;" vertex="1" parent="NuSIliQYUazbYQGjYqIf-50">
          <mxGeometry x="1" width="20" height="20" relative="1" as="geometry">
            <mxPoint x="-24" y="4" as="offset" />
          </mxGeometry>
        </mxCell>
        <mxCell id="NuSIliQYUazbYQGjYqIf-52" value="&lt;p style=&quot;margin: 0px ; margin-top: 6px ; text-align: center&quot;&gt;&lt;b&gt;ArchiveListCardDisplay&lt;/b&gt;&lt;/p&gt;&lt;hr&gt;&lt;p style=&quot;margin: 0px ; margin-left: 8px&quot;&gt;&lt;br&gt;&lt;/p&gt;" style="align=left;overflow=fill;html=1;dropTarget=0;" vertex="1" parent="WIyWlLk6GJQsqaUBKTNV-1">
          <mxGeometry x="930" y="450" width="260" height="170" as="geometry" />
        </mxCell>
        <mxCell id="NuSIliQYUazbYQGjYqIf-53" value="" style="shape=component;jettyWidth=8;jettyHeight=4;" vertex="1" parent="NuSIliQYUazbYQGjYqIf-52">
          <mxGeometry x="1" width="20" height="20" relative="1" as="geometry">
            <mxPoint x="-24" y="4" as="offset" />
          </mxGeometry>
        </mxCell>
        <mxCell id="NuSIliQYUazbYQGjYqIf-56" value="&lt;p style=&quot;margin: 0px ; margin-top: 6px ; text-align: center&quot;&gt;&lt;b&gt;CardDisplay&lt;/b&gt;&lt;/p&gt;&lt;hr&gt;&lt;p style=&quot;margin: 0px ; margin-left: 8px&quot;&gt;&lt;br&gt;&lt;/p&gt;" style="align=left;overflow=fill;html=1;dropTarget=0;" vertex="1" parent="WIyWlLk6GJQsqaUBKTNV-1">
          <mxGeometry x="-150" y="680" width="180" height="90" as="geometry" />
        </mxCell>
        <mxCell id="NuSIliQYUazbYQGjYqIf-57" value="" style="shape=component;jettyWidth=8;jettyHeight=4;" vertex="1" parent="NuSIliQYUazbYQGjYqIf-56">
          <mxGeometry x="1" width="20" height="20" relative="1" as="geometry">
            <mxPoint x="-24" y="4" as="offset" />
          </mxGeometry>
        </mxCell>
        <mxCell id="NuSIliQYUazbYQGjYqIf-58" value="&lt;p style=&quot;margin: 0px ; margin-top: 6px ; text-align: center&quot;&gt;&lt;b&gt;EditButton&lt;/b&gt;&lt;/p&gt;&lt;hr&gt;&lt;p style=&quot;margin: 0px ; margin-left: 8px&quot;&gt;&lt;br&gt;&lt;/p&gt;" style="align=left;overflow=fill;html=1;dropTarget=0;" vertex="1" parent="WIyWlLk6GJQsqaUBKTNV-1">
          <mxGeometry x="70" y="680" width="180" height="90" as="geometry" />
        </mxCell>
        <mxCell id="NuSIliQYUazbYQGjYqIf-59" value="" style="shape=component;jettyWidth=8;jettyHeight=4;" vertex="1" parent="NuSIliQYUazbYQGjYqIf-58">
          <mxGeometry x="1" width="20" height="20" relative="1" as="geometry">
            <mxPoint x="-24" y="4" as="offset" />
          </mxGeometry>
        </mxCell>
        <mxCell id="NuSIliQYUazbYQGjYqIf-60" value="&lt;p style=&quot;margin: 0px ; margin-top: 6px ; text-align: center&quot;&gt;&lt;b&gt;UnarchiveButton&lt;/b&gt;&lt;/p&gt;&lt;hr&gt;&lt;p style=&quot;margin: 0px ; margin-left: 8px&quot;&gt;&lt;br&gt;&lt;/p&gt;" style="align=left;overflow=fill;html=1;dropTarget=0;" vertex="1" parent="WIyWlLk6GJQsqaUBKTNV-1">
          <mxGeometry x="280" y="680" width="180" height="90" as="geometry" />
        </mxCell>
        <mxCell id="NuSIliQYUazbYQGjYqIf-61" value="" style="shape=component;jettyWidth=8;jettyHeight=4;" vertex="1" parent="NuSIliQYUazbYQGjYqIf-60">
          <mxGeometry x="1" width="20" height="20" relative="1" as="geometry">
            <mxPoint x="-24" y="4" as="offset" />
          </mxGeometry>
        </mxCell>
        <mxCell id="NuSIliQYUazbYQGjYqIf-62" value="&lt;p style=&quot;margin: 0px ; margin-top: 6px ; text-align: center&quot;&gt;&lt;b&gt;RowDisplay&lt;/b&gt;&lt;/p&gt;&lt;hr&gt;&lt;p style=&quot;margin: 0px ; margin-left: 8px&quot;&gt;&lt;br&gt;&lt;/p&gt;" style="align=left;overflow=fill;html=1;dropTarget=0;" vertex="1" parent="WIyWlLk6GJQsqaUBKTNV-1">
          <mxGeometry x="-370" y="680" width="180" height="90" as="geometry" />
        </mxCell>
        <mxCell id="NuSIliQYUazbYQGjYqIf-63" value="" style="shape=component;jettyWidth=8;jettyHeight=4;" vertex="1" parent="NuSIliQYUazbYQGjYqIf-62">
          <mxGeometry x="1" width="20" height="20" relative="1" as="geometry">
            <mxPoint x="-24" y="4" as="offset" />
          </mxGeometry>
        </mxCell>
        <mxCell id="NuSIliQYUazbYQGjYqIf-64" value="&lt;p style=&quot;margin: 0px ; margin-top: 6px ; text-align: center&quot;&gt;&lt;b&gt;RowDisplay&lt;/b&gt;&lt;/p&gt;&lt;hr&gt;&lt;p style=&quot;margin: 0px ; margin-left: 8px&quot;&gt;&lt;br&gt;&lt;/p&gt;" style="align=left;overflow=fill;html=1;dropTarget=0;" vertex="1" parent="WIyWlLk6GJQsqaUBKTNV-1">
          <mxGeometry x="-370" y="480" width="250" height="80" as="geometry" />
        </mxCell>
        <mxCell id="NuSIliQYUazbYQGjYqIf-65" value="" style="shape=component;jettyWidth=8;jettyHeight=4;" vertex="1" parent="NuSIliQYUazbYQGjYqIf-64">
          <mxGeometry x="1" width="20" height="20" relative="1" as="geometry">
            <mxPoint x="-24" y="4" as="offset" />
          </mxGeometry>
        </mxCell>
        <mxCell id="NuSIliQYUazbYQGjYqIf-66" value="&lt;p style=&quot;margin: 0px ; margin-top: 6px ; text-align: center&quot;&gt;&lt;b&gt;EditButton&lt;/b&gt;&lt;/p&gt;&lt;hr&gt;&lt;p style=&quot;margin: 0px ; margin-left: 8px&quot;&gt;&lt;br&gt;&lt;/p&gt;" style="align=left;overflow=fill;html=1;dropTarget=0;" vertex="1" parent="WIyWlLk6GJQsqaUBKTNV-1">
          <mxGeometry x="-370" y="570" width="250" height="30" as="geometry" />
        </mxCell>
        <mxCell id="NuSIliQYUazbYQGjYqIf-67" value="" style="shape=component;jettyWidth=8;jettyHeight=4;" vertex="1" parent="NuSIliQYUazbYQGjYqIf-66">
          <mxGeometry x="1" width="20" height="20" relative="1" as="geometry">
            <mxPoint x="-24" y="4" as="offset" />
          </mxGeometry>
        </mxCell>
        <mxCell id="NuSIliQYUazbYQGjYqIf-68" value="&lt;p style=&quot;margin: 0px ; margin-top: 6px ; text-align: center&quot;&gt;&lt;b&gt;CardDisplay&lt;/b&gt;&lt;/p&gt;&lt;hr&gt;&lt;p style=&quot;margin: 0px ; margin-left: 8px&quot;&gt;&lt;br&gt;&lt;/p&gt;" style="align=left;overflow=fill;html=1;dropTarget=0;" vertex="1" parent="WIyWlLk6GJQsqaUBKTNV-1">
          <mxGeometry x="465" y="485" width="230" height="80" as="geometry" />
        </mxCell>
        <mxCell id="NuSIliQYUazbYQGjYqIf-69" value="" style="shape=component;jettyWidth=8;jettyHeight=4;" vertex="1" parent="NuSIliQYUazbYQGjYqIf-68">
          <mxGeometry x="1" width="20" height="20" relative="1" as="geometry">
            <mxPoint x="-24" y="4" as="offset" />
          </mxGeometry>
        </mxCell>
        <mxCell id="NuSIliQYUazbYQGjYqIf-70" value="&lt;p style=&quot;margin: 0px ; margin-top: 6px ; text-align: center&quot;&gt;&lt;b&gt;UnarchiveButton&lt;/b&gt;&lt;/p&gt;&lt;hr&gt;&lt;p style=&quot;margin: 0px ; margin-left: 8px&quot;&gt;&lt;br&gt;&lt;/p&gt;" style="align=left;overflow=fill;html=1;dropTarget=0;" vertex="1" parent="WIyWlLk6GJQsqaUBKTNV-1">
          <mxGeometry x="145" y="570" width="230" height="30" as="geometry" />
        </mxCell>
        <mxCell id="NuSIliQYUazbYQGjYqIf-71" value="" style="shape=component;jettyWidth=8;jettyHeight=4;" vertex="1" parent="NuSIliQYUazbYQGjYqIf-70">
          <mxGeometry x="1" width="20" height="20" relative="1" as="geometry">
            <mxPoint x="-24" y="4" as="offset" />
          </mxGeometry>
        </mxCell>
        <mxCell id="NuSIliQYUazbYQGjYqIf-72" value="&lt;p style=&quot;margin: 0px ; margin-top: 6px ; text-align: center&quot;&gt;&lt;b&gt;RowDisplay&lt;/b&gt;&lt;/p&gt;&lt;hr&gt;&lt;p style=&quot;margin: 0px ; margin-left: 8px&quot;&gt;&lt;br&gt;&lt;/p&gt;" style="align=left;overflow=fill;html=1;dropTarget=0;" vertex="1" parent="WIyWlLk6GJQsqaUBKTNV-1">
          <mxGeometry x="140" y="487.5" width="240" height="75" as="geometry" />
        </mxCell>
        <mxCell id="NuSIliQYUazbYQGjYqIf-73" value="" style="shape=component;jettyWidth=8;jettyHeight=4;" vertex="1" parent="NuSIliQYUazbYQGjYqIf-72">
          <mxGeometry x="1" width="20" height="20" relative="1" as="geometry">
            <mxPoint x="-24" y="4" as="offset" />
          </mxGeometry>
        </mxCell>
        <mxCell id="NuSIliQYUazbYQGjYqIf-74" value="&lt;p style=&quot;margin: 0px ; margin-top: 6px ; text-align: center&quot;&gt;&lt;b&gt;EditButton&lt;/b&gt;&lt;/p&gt;&lt;hr&gt;&lt;p style=&quot;margin: 0px ; margin-left: 8px&quot;&gt;&lt;br&gt;&lt;/p&gt;" style="align=left;overflow=fill;html=1;dropTarget=0;" vertex="1" parent="WIyWlLk6GJQsqaUBKTNV-1">
          <mxGeometry x="465" y="570" width="225" height="30" as="geometry" />
        </mxCell>
        <mxCell id="NuSIliQYUazbYQGjYqIf-75" value="" style="shape=component;jettyWidth=8;jettyHeight=4;" vertex="1" parent="NuSIliQYUazbYQGjYqIf-74">
          <mxGeometry x="1" width="20" height="20" relative="1" as="geometry">
            <mxPoint x="-24" y="4" as="offset" />
          </mxGeometry>
        </mxCell>
        <mxCell id="NuSIliQYUazbYQGjYqIf-76" value="&lt;p style=&quot;margin: 0px ; margin-top: 6px ; text-align: center&quot;&gt;&lt;b&gt;CardDisplay&lt;/b&gt;&lt;/p&gt;&lt;hr&gt;&lt;p style=&quot;margin: 0px ; margin-left: 8px&quot;&gt;&lt;br&gt;&lt;/p&gt;" style="align=left;overflow=fill;html=1;dropTarget=0;" vertex="1" parent="WIyWlLk6GJQsqaUBKTNV-1">
          <mxGeometry x="945" y="485" width="230" height="80" as="geometry" />
        </mxCell>
        <mxCell id="NuSIliQYUazbYQGjYqIf-77" value="" style="shape=component;jettyWidth=8;jettyHeight=4;" vertex="1" parent="NuSIliQYUazbYQGjYqIf-76">
          <mxGeometry x="1" width="20" height="20" relative="1" as="geometry">
            <mxPoint x="-24" y="4" as="offset" />
          </mxGeometry>
        </mxCell>
        <mxCell id="NuSIliQYUazbYQGjYqIf-78" value="&lt;p style=&quot;margin: 0px ; margin-top: 6px ; text-align: center&quot;&gt;&lt;b&gt;UnarchiveButton&lt;/b&gt;&lt;/p&gt;&lt;hr&gt;&lt;p style=&quot;margin: 0px ; margin-left: 8px&quot;&gt;&lt;br&gt;&lt;/p&gt;" style="align=left;overflow=fill;html=1;dropTarget=0;" vertex="1" parent="WIyWlLk6GJQsqaUBKTNV-1">
          <mxGeometry x="945" y="570" width="225" height="30" as="geometry" />
        </mxCell>
        <mxCell id="NuSIliQYUazbYQGjYqIf-79" value="" style="shape=component;jettyWidth=8;jettyHeight=4;" vertex="1" parent="NuSIliQYUazbYQGjYqIf-78">
          <mxGeometry x="1" width="20" height="20" relative="1" as="geometry">
            <mxPoint x="-24" y="4" as="offset" />
          </mxGeometry>
        </mxCell>
        <mxCell id="NuSIliQYUazbYQGjYqIf-80" value="&lt;p style=&quot;margin: 0px ; margin-top: 6px ; text-align: center&quot;&gt;&lt;b&gt;ActiveArchiveButtonGroup&lt;/b&gt;&lt;/p&gt;&lt;hr&gt;&lt;p style=&quot;margin: 0px ; margin-left: 8px&quot;&gt;&lt;br&gt;&lt;/p&gt;" style="align=left;overflow=fill;html=1;dropTarget=0;" vertex="1" parent="WIyWlLk6GJQsqaUBKTNV-1">
          <mxGeometry x="490" y="680" width="210" height="90" as="geometry" />
        </mxCell>
        <mxCell id="NuSIliQYUazbYQGjYqIf-81" value="" style="shape=component;jettyWidth=8;jettyHeight=4;" vertex="1" parent="NuSIliQYUazbYQGjYqIf-80">
          <mxGeometry x="1" width="20" height="20" relative="1" as="geometry">
            <mxPoint x="-24" y="4" as="offset" />
          </mxGeometry>
        </mxCell>
        <mxCell id="NuSIliQYUazbYQGjYqIf-82" value="&lt;p style=&quot;margin: 0px ; margin-top: 6px ; text-align: center&quot;&gt;&lt;b&gt;TableCardButtonGroup&lt;/b&gt;&lt;/p&gt;&lt;hr&gt;&lt;p style=&quot;margin: 0px ; margin-left: 8px&quot;&gt;&lt;br&gt;&lt;/p&gt;" style="align=left;overflow=fill;html=1;dropTarget=0;" vertex="1" parent="WIyWlLk6GJQsqaUBKTNV-1">
          <mxGeometry x="740" y="680" width="210" height="90" as="geometry" />
        </mxCell>
        <mxCell id="NuSIliQYUazbYQGjYqIf-83" value="" style="shape=component;jettyWidth=8;jettyHeight=4;" vertex="1" parent="NuSIliQYUazbYQGjYqIf-82">
          <mxGeometry x="1" width="20" height="20" relative="1" as="geometry">
            <mxPoint x="-24" y="4" as="offset" />
          </mxGeometry>
        </mxCell>
        <mxCell id="NuSIliQYUazbYQGjYqIf-84" value="&lt;p style=&quot;margin: 0px ; margin-top: 6px ; text-align: center&quot;&gt;&lt;b&gt;ActiveArchiveButtonGroup&lt;/b&gt;&lt;/p&gt;&lt;hr&gt;&lt;p style=&quot;margin: 0px ; margin-left: 8px&quot;&gt;&lt;br&gt;&lt;/p&gt;" style="align=left;overflow=fill;html=1;dropTarget=0;" vertex="1" parent="WIyWlLk6GJQsqaUBKTNV-1">
          <mxGeometry x="560" y="160" width="130" height="50" as="geometry" />
        </mxCell>
        <mxCell id="NuSIliQYUazbYQGjYqIf-85" value="" style="shape=component;jettyWidth=8;jettyHeight=4;" vertex="1" parent="NuSIliQYUazbYQGjYqIf-84">
          <mxGeometry x="1" width="20" height="20" relative="1" as="geometry">
            <mxPoint x="-24" y="4" as="offset" />
          </mxGeometry>
        </mxCell>
        <mxCell id="NuSIliQYUazbYQGjYqIf-86" value="&lt;p style=&quot;margin: 0px ; margin-top: 6px ; text-align: center&quot;&gt;&lt;b&gt;TableCardButtonGroup&lt;/b&gt;&lt;/p&gt;&lt;hr&gt;&lt;p style=&quot;margin: 0px ; margin-left: 8px&quot;&gt;&lt;br&gt;&lt;/p&gt;" style="align=left;overflow=fill;html=1;dropTarget=0;" vertex="1" parent="WIyWlLk6GJQsqaUBKTNV-1">
          <mxGeometry x="720" y="160" width="160" height="50" as="geometry" />
        </mxCell>
        <mxCell id="NuSIliQYUazbYQGjYqIf-87" value="" style="shape=component;jettyWidth=8;jettyHeight=4;" vertex="1" parent="NuSIliQYUazbYQGjYqIf-86">
          <mxGeometry x="1" width="20" height="20" relative="1" as="geometry">
            <mxPoint x="-24" y="4" as="offset" />
          </mxGeometry>
        </mxCell>
      </root>
    </mxGraphModel>
  </diagram>
</mxfile>
